<svg width="32" height="32" viewBox="0 0 32 32" fill="none" xmlns="http://www.w3.org/2000/svg">
<path d="M4.5344 12.3061C5.05784 10.6942 5.9201 9.21459 7.05784 7.96067C7.25022 7.74863 7.55206 7.67305 7.8223 7.76927L10.5413 8.73727C11.2784 8.99957 12.0895 8.61719 12.3529 7.88321C12.3788 7.81103 12.3988 7.73689 12.4126 7.66161L12.9306 4.83055C12.9821 4.54907 13.1992 4.32641 13.4803 4.26683C14.3026 4.09255 15.1458 4.00391 16 4.00391C16.8537 4.00391 17.6964 4.09245 18.5182 4.26651C18.7992 4.32603 19.0163 4.54855 19.0679 4.82993L19.5874 7.66149C19.7278 8.42827 20.4659 8.93651 21.2361 8.79669C21.3119 8.78293 21.3863 8.76307 21.4587 8.73731L24.1777 7.76927C24.4479 7.67305 24.7497 7.74863 24.9421 7.96067C26.0799 9.21459 26.9421 10.6942 27.4657 12.3061C27.5539 12.578 27.4687 12.8761 27.2499 13.0611L25.0461 14.9241C24.4495 15.4286 24.3765 16.3192 24.8831 16.9134C24.9329 16.9718 24.9875 17.0261 25.0461 17.0756L27.2499 18.9387C27.4687 19.1237 27.5539 19.4218 27.4657 19.6937C26.9421 21.3057 26.0799 22.7853 24.9421 24.0391C24.7497 24.2511 24.4479 24.3267 24.1777 24.2305L21.4587 23.2625C20.7217 23.0003 19.9105 23.3827 19.6471 24.1165C19.6212 24.1887 19.6012 24.2629 19.5874 24.3385L19.0679 27.1699C19.0163 27.4513 18.7992 27.6737 18.5182 27.7333C17.6964 27.9073 16.8537 27.9959 16 27.9959C15.1458 27.9959 14.3026 27.9073 13.4803 27.7329C13.1992 27.6733 12.9821 27.4507 12.9306 27.1693L12.4126 24.3383C12.2722 23.5715 11.534 23.0633 10.7639 23.2031C10.6882 23.2169 10.6137 23.2367 10.5414 23.2625L7.8223 24.2305C7.55206 24.3267 7.25022 24.2511 7.05784 24.0391C5.9201 22.7853 5.05784 21.3057 4.5344 19.6937C4.4461 19.4218 4.53124 19.1237 4.75006 18.9387L6.95386 17.0757C7.55056 16.5712 7.62354 15.6805 7.11688 15.0864C7.06706 15.028 7.01254 14.9737 6.95388 14.9241L4.75006 13.0611C4.53124 12.8761 4.4461 12.578 4.5344 12.3061ZM12.4998 15.9998C12.4998 17.9328 14.0668 19.4998 15.9998 19.4998C17.9328 19.4998 19.4998 17.9328 19.4998 15.9998C19.4998 14.0668 17.9328 12.4998 15.9998 12.4998C14.0668 12.4998 12.4998 14.0668 12.4998 15.9998Z" stroke="white" stroke-width="3"/>
</svg>
